<?xml version="1.0" standalone="no"?>
<!DOCTYPE svg PUBLIC "-//W3C//DTD SVG 1.1//EN" "http://www.w3.org/Graphics/SVG/1.1/DTD/svg11.dtd" >
<svg xmlns="http://www.w3.org/2000/svg" xmlns:xlink="http://www.w3.org/1999/xlink" version="1.1">
<metadata>
Created by FontForge 20161013 at Thu May 19 13:19:33 2005
 By ,,,
Generated by Fontographer 4.1.5
</metadata>
<defs>
<font id="AlwynLight" horiz-adv-x="360" >
  <font-face 
    font-family="Alwyn"
    font-weight="300"
    font-stretch="normal"
    units-per-em="1000"
    panose-1="0 0 3 0 0 0 0 0 0 0"
    ascent="800"
    descent="-200"
    x-height="527"
    cap-height="712"
    bbox="-36 -195 1128 925"
    underline-thickness="20"
    underline-position="-163"
    unicode-range="U+0020-F002"
  />
<missing-glyph horiz-adv-x="500" 
d="M63 0v775h375v-775h-375zM125 63h250v650h-250v-650z" />
    <glyph glyph-name=".notdef" horiz-adv-x="500" 
d="M63 0v775h375v-775h-375zM125 63h250v650h-250v-650z" />
    <glyph glyph-name="glyph1" horiz-adv-x="0" 
 />
    <glyph glyph-name="glyph2" horiz-adv-x="210" 
 />
    <glyph glyph-name="space" unicode=" " horiz-adv-x="210" 
 />
    <glyph glyph-name="exclam" unicode="!" horiz-adv-x="337" 
d="M213 712l-12 -493l-57 -9l-13 502h82zM219 41q0 -20 -15 -34.5t-35 -14.5q-19 0 -34 14.5t-15 34.5t14.5 35t34.5 15t35 -15t15 -35z" />
    <glyph glyph-name="quotedbl" unicode="&#x22;" horiz-adv-x="384" 
d="M276 474h-61v220h61v-220zM164 474h-61v220h61v-220z" />
    <glyph glyph-name="numbersign" unicode="#" horiz-adv-x="644" 
d="M542 300h-94v-150h-65v150h-121v-150h-65v150h-94v62h94v118h-94v62h94v150h65v-150h121v150h65v-150h94v-62h-94v-118h94v-62zM383 362v118h-121v-118h121z" />
    <glyph glyph-name="dollar" unicode="$" horiz-adv-x="580" 
d="M493 187q0 -88 -57 -141t-155 -54l-4 -46l-44 4l4 44q-66 7 -149 33l11 62q51 -15 71 -20q40 -9 73 -12l25 284q-84 38 -118 69q-54 49 -54 124q0 86 56 135.5t149 50.5l4 46l43 -3l-4 -44q54 -6 120 -29l-15 -58q-48 18 -110 24l-23 -263q85 -37 121 -71q56 -52 56 -135
zM286 55q141 5 141 132q0 48 -35 82q-26 26 -82 53zM295 658q-132 -5 -132 -124q0 -44 32 -75q24 -23 79 -47z" />
    <glyph glyph-name="percent" unicode="%" horiz-adv-x="872" 
d="M407 531q0 -70 -41 -117q-44 -50 -113 -50q-70 0 -113 50q-41 47 -41 117q0 72 42 120.5t112 48.5q69 0 113 -50q41 -47 41 -119zM556 691l-200 -690h-37l200 690h37zM773 160q0 -70 -41 -118q-44 -50 -113 -50q-70 0 -112 49t-42 119q0 72 42 120t112 48q69 0 113 -49
q41 -47 41 -119zM364 531q0 54 -28 91q-31 39 -83 39t-81.5 -38t-29.5 -92q0 -52 28 -88q31 -40 83 -40t83 40q28 36 28 88zM730 160q0 54 -28 90q-31 39 -83 39t-81.5 -37.5t-29.5 -91.5q0 -53 28 -89q31 -40 83 -40t83 40q28 36 28 89z" />
    <glyph glyph-name="ampersand" unicode="&#x26;" horiz-adv-x="697" 
d="M452 73v272h-128q-73 0 -113 -46q-36 -41 -36 -103q0 -57 35 -96q42 -45 116 -45q61 0 126 18zM605 350l-96 -5v-317q-86 -36 -186 -36q-96 0 -156 61q-57 58 -57 143q0 134 118 182v1q-95 56 -95 156q0 84 56 134.5t150 50.5q45 0 107 -12l-10 -60q-55 10 -97 10
q-71 0 -109 -36q-35 -32 -35 -88q0 -51 32 -90q37 -45 100 -45h126l11 98h45v-98h96v-49z" />
    <glyph glyph-name="quotesingle" unicode="'" horiz-adv-x="271" 
d="M164 474h-61v220h61v-220z" />
    <glyph glyph-name="parenleft" unicode="(" horiz-adv-x="369" 
d="M284 -186q-179 0 -179 190v581q0 189 179 189v-57q-119 0 -119 -132v-581q0 -134 119 -134v-56z" />
    <glyph glyph-name="parenright" unicode=")" horiz-adv-x="369" 
d="M284 4q0 -190 -179 -190v56q119 0 119 134v581q0 132 -119 132v57q179 0 179 -189v-581z" />
    <glyph glyph-name="asterisk" unicode="*" horiz-adv-x="550" 
d="M448 442l-27 -47l-127 80l8 -149l-54 1l6 150l-125 -82l-27 47l133 70l-133 68l27 46l127 -80l-8 149h54l-6 -150l125 81l27 -46l-133 -70z" />
    <glyph glyph-name="plus" unicode="+" horiz-adv-x="591" 
d="M492 235h-163v-172h-66v172h-163v67h163v172h66v-172h163v-67z" />
    <glyph glyph-name="comma" unicode="," horiz-adv-x="222" 
d="M166 38l-58 -156l-53 14l28 164q9 32 42 32q17 0 29.5 -13t12.5 -30q0 -6 -1 -11z" />
    <glyph glyph-name="hyphen" unicode="-" horiz-adv-x="455" 
d="M382 233h-309v73h309v-73z" />
    <glyph glyph-name="hyphen" unicode="&#x2010;" horiz-adv-x="455" 
d="M382 233h-309v73h309v-73z" />
    <glyph glyph-name="period" unicode="." horiz-adv-x="208" 
d="M153 42q0 -20 -15 -35t-35 -15q-19 0 -33.5 15t-14.5 35t14.5 35t33.5 15q20 0 35 -15t15 -35z" />
    <glyph glyph-name="slash" unicode="/" horiz-adv-x="373" 
d="M316 787l-208 -787h-51l208 787h51z" />
    <glyph glyph-name="zero" unicode="0" horiz-adv-x="580" 
d="M517 244q0 -112 -60 -180q-62 -72 -167 -72t-167 73q-59 70 -59 179v205q0 112 60 181.5t166 69.5q105 0 166 -71t61 -180v-205zM452 244v205q0 77 -34 126q-43 62 -128 62q-86 0 -129 -62q-33 -49 -33 -126v-205q0 -76 33 -126q43 -64 129 -64q85 0 128 64q34 50 34 126
z" />
    <glyph glyph-name="one" unicode="1" horiz-adv-x="580" 
d="M478 0h-362v63h158v561l-156 -64l-22 56l184 76h59v-630l139 -8v-54z" />
    <glyph glyph-name="two" unicode="2" horiz-adv-x="580" 
d="M440 16q0 -16 -16 -16h-368v63q0 151 135 249q37 26 75 52q43 32 69 59q39 41 39 98q0 56 -42 88q-39 29 -97 29q-56 0 -142 -34l-20 56q89 40 162 40q82 0 140 -48q62 -51 62 -131q0 -93 -82 -163q-76 -57 -152 -115q-82 -75 -82 -181h319v-46z" />
    <glyph glyph-name="three" unicode="3" horiz-adv-x="580" 
d="M465 192q0 -85 -59 -141q-63 -59 -170 -59q-84 0 -153 30l15 58q71 -26 138 -26q75 0 119 37.5t44 100.5q0 75 -50 115q-44 35 -109 35h-47v57h37q67 0 108.5 33t41.5 89q0 52 -37 84t-105 32q-58 0 -125 -26l-20 58q81 31 145 31q93 0 150.5 -48t57.5 -131
q0 -42 -24 -80q-28 -44 -81 -69v-2q124 -55 124 -178z" />
    <glyph glyph-name="four" unicode="4" horiz-adv-x="580" 
d="M538 222l-14 -60h-125v-162h-63v162h-177q-35 0 -60 17q-33 23 -33 68q0 11 2 22l66 423h62l-67 -434q-6 -36 30 -36h177v342l63 -9v-333h139z" />
    <glyph glyph-name="five" unicode="5" horiz-adv-x="580" 
d="M495 221q0 -103 -69 -166t-172 -63q-68 0 -177 38l16 60q110 -36 163 -36q80 0 129 50q45 46 45 117q0 68 -36 108q-41 46 -120 46q-68 0 -137 -26l-28 46v297h349l-7 -62h-282v-211q57 15 105 15q104 0 162.5 -58t58.5 -155z" />
    <glyph glyph-name="six" unicode="6" horiz-adv-x="580" 
d="M505 216q0 -105 -64 -166q-59 -58 -151 -58t-151 58q-63 61 -63 166v260q0 96 56 157q61 67 170 67q64 0 149 -30l-14 -60q-77 27 -135 27q-85 0 -128 -52q-34 -43 -34 -109v-80q76 47 150 47q93 0 152 -58q63 -61 63 -169zM441 216q0 75 -39.5 121.5t-114.5 46.5
q-69 0 -147 -45v-124q0 -71 36 -114q39 -47 113 -47t114 47q38 44 38 115z" />
    <glyph glyph-name="seven" unicode="7" horiz-adv-x="580" 
d="M494 638l-227 -638h-67l223 630h-347v62h399z" />
    <glyph glyph-name="eight" unicode="8" horiz-adv-x="580" 
d="M511 195q0 -98 -70 -154q-61 -49 -151 -49q-89 0 -150 49q-70 56 -70 154q0 121 106 170q-84 54 -84 151q0 85 61 137q57 47 137 47q81 0 137 -47q61 -51 61 -137q0 -99 -84 -150q107 -51 107 -171zM424 516q0 57 -43 90q-38 31 -93 31q-56 0 -92 -31q-40 -33 -40 -90
q0 -58 43 -94q38 -32 91 -32q52 0 91 33q43 36 43 93zM447 195q0 67 -50 104q-43 32 -107 32t-107 -32q-49 -37 -49 -104t49 -106q44 -35 107 -35q62 0 107 35q50 39 50 106z" />
    <glyph glyph-name="nine" unicode="9" horiz-adv-x="580" 
d="M505 216q0 -96 -57 -157q-61 -67 -169 -67q-64 0 -149 30l14 60q76 -27 135 -27q84 0 127 52q35 43 35 109v80q-77 -47 -150 -47q-94 0 -153 58q-62 61 -62 169q0 105 63 166q59 58 152 58q91 0 150 -58q64 -61 64 -166v-260zM441 353v124q0 71 -37 114q-39 47 -112 47
q-75 0 -113.5 -45.5t-38.5 -116.5q0 -75 38 -120q40 -48 116 -48q68 0 147 45z" />
    <glyph glyph-name="colon" unicode=":" horiz-adv-x="208" 
d="M153 41q0 -19 -15 -34t-34 -15q-20 0 -34.5 15t-14.5 34q0 21 14.5 36t34.5 15q19 0 34 -15t15 -36zM153 369q0 -20 -15 -35t-34 -15q-20 0 -34.5 15t-14.5 35t14.5 35t34.5 15q19 0 34 -15t15 -35z" />
    <glyph glyph-name="semicolon" unicode=";" horiz-adv-x="231" 
d="M176 371q0 -20 -15 -34.5t-35 -14.5t-34.5 14.5t-14.5 34.5t14.5 35t34.5 15t35 -15t15 -35zM166 38l-58 -156l-53 14l28 164q9 33 42 33q17 0 29.5 -13t12.5 -31q0 -5 -1 -11z" />
    <glyph glyph-name="less" unicode="&#x3c;" horiz-adv-x="613" 
d="M508 81l-29 -56l-381 220v47l381 220l29 -55l-326 -188z" />
    <glyph glyph-name="equal" unicode="=" horiz-adv-x="588" 
d="M489 323h-389v68h389v-68zM489 146h-389v68h389v-68z" />
    <glyph glyph-name="greater" unicode="&#x3e;" horiz-adv-x="613" 
d="M511 246l-382 -218l-27 52l332 189l-332 189l27 51l382 -218v-45z" />
    <glyph glyph-name="question" unicode="?" horiz-adv-x="551" 
d="M433 564q0 -46 -24 -88q-4 -7 -50 -65q-34 -42 -46 -72q-21 -49 -21 -122l-65 -7q0 86 23 143q14 36 50 81q23 30 47 59q23 35 23 71q0 39 -27.5 66t-75.5 27t-120 -36l-27 56q81 43 147 43q77 0 124 -48q42 -44 42 -108zM309 41q0 -19 -15 -34t-35 -15q-19 0 -34 15
t-15 34q0 20 14.5 35t34.5 15t35 -14.5t15 -35.5z" />
    <glyph glyph-name="at" unicode="@" horiz-adv-x="894" 
d="M795 355q0 -105 -51 -193h-190l-4 25q-59 -31 -111 -31q-68 0 -109 42t-41 112v91q0 73 40.5 113.5t109.5 40.5q38 0 102 -23v15h53v-337h116q32 63 32 145q0 138 -87 223q-82 81 -208 81q-125 0 -207 -81q-86 -85 -86 -223q0 -140 86 -223q81 -80 207 -80q82 0 135 23
l9 -52q-64 -25 -144 -25q-147 0 -245 97q-102 100 -102 260q0 159 102 260q98 98 245 98q148 0 246 -98q102 -101 102 -260zM541 231v252q-54 22 -102 22q-97 0 -97 -104v-91q0 -104 97 -104q49 0 102 25z" />
    <glyph glyph-name="A" unicode="A" horiz-adv-x="655" 
d="M609 0h-63l-60 219h-318l-59 -219h-64l165 611q29 109 117 109t117 -109zM470 281l-84 313q-17 65 -59 65q-40 0 -58 -65l-85 -313h286z" />
    <glyph glyph-name="B" unicode="B" horiz-adv-x="578" 
d="M523 201q0 -87 -50 -141q-56 -60 -159 -60h-228v679q112 41 206 41t151 -57q53 -54 53 -135q0 -93 -98 -147v-2q125 -55 125 -178zM430 528q0 56 -31 90q-36 40 -107 40q-75 0 -142 -23v-233h141q59 0 99 38t40 88zM458 201q0 56 -37 97q-40 45 -107 45h-164v-281h164
q144 0 144 139z" />
    <glyph glyph-name="C" unicode="C" horiz-adv-x="540" 
d="M509 25q-107 -33 -202 -33q-120 0 -184 74q-58 68 -58 182v216q0 115 58 182q64 74 184 74q91 0 202 -29l-13 -63q-81 29 -189 29q-178 0 -178 -197v-208q0 -198 177 -198q95 0 188 31z" />
    <glyph glyph-name="D" unicode="D" horiz-adv-x="636" 
d="M565 231q0 -231 -247 -231h-232v712h232q247 0 247 -231v-250zM500 243v227q0 180 -182 180h-168v-588h168q182 0 182 181z" />
    <glyph glyph-name="E" unicode="E" horiz-adv-x="521" 
d="M461 16q0 -16 -15 -16h-171q-93 0 -141 47t-48 127v364q0 81 47.5 127.5t141.5 46.5h183v-62h-183q-124 0 -124 -114v-141h292v-61h-292v-157q0 -55 24 -82q29 -32 100 -32h186v-47z" />
    <glyph glyph-name="F" unicode="F" horiz-adv-x="495" 
d="M456 650h-306v-268h277v-60h-277v-322h-64v712h370v-62z" />
    <glyph glyph-name="G" unicode="G" horiz-adv-x="605" 
d="M541 31q-125 -39 -216 -39q-122 0 -190 72q-65 69 -65 183v217q0 116 59 182q66 74 199 74q102 0 191 -29l-13 -61q-81 27 -178 27q-194 0 -194 -197v-210q0 -83 38 -133q48 -63 152 -63q80 0 157 23v248l60 10v-304z" />
    <glyph glyph-name="H" unicode="H" horiz-adv-x="647" 
d="M560 16q0 -16 -15 -16h-49v334h-345v-334h-65v712h65v-318h345v318h64v-696z" />
    <glyph glyph-name="I" unicode="I" horiz-adv-x="225" 
d="M145 16q0 -16 -15 -16h-50v712h65v-696z" />
    <glyph glyph-name="J" unicode="J" horiz-adv-x="471" 
d="M401 218q0 -226 -211 -226q-69 0 -152 27l12 61q85 -26 140 -26q146 0 146 164v494h65v-494z" />
    <glyph glyph-name="K" unicode="K" horiz-adv-x="579" 
d="M539 0h-66l-89 275q-11 36 -29 49q-23 19 -69 16l-135 -9v-315q0 -16 -15 -16h-50v712h65v-321l135 8l139 313h66l-144 -319q70 -16 97 -99z" />
    <glyph glyph-name="L" unicode="L" horiz-adv-x="540" 
d="M480 16q0 -16 -15 -16h-379v712h65v-649h329v-47z" />
    <glyph glyph-name="M" unicode="M" horiz-adv-x="838" 
d="M784 0h-68l-74 617l-16 -70l-116 -408q-25 -89 -93 -89q-69 0 -94 89l-116 408l-15 70l-11 -99l-65 -518h-66l90 712h86l158 -556q12 -42 33 -42q20 0 32 42l158 556h86z" />
    <glyph glyph-name="N" unicode="N" horiz-adv-x="633" 
d="M546 0h-83l-254 578q-19 43 -31 57.5t-28 15.5v-651h-64v712h58q47 0 72 -25q22 -20 50 -84l224 -501l-9 63v547h65v-712z" />
    <glyph glyph-name="O" unicode="O" horiz-adv-x="656" 
d="M586 265q0 -116 -69 -192q-72 -81 -189 -81t-190 82q-68 77 -68 191v181q0 117 68 194q72 80 190 80q116 0 189 -83q69 -78 69 -191v-181zM521 268v175q0 83 -44 142q-52 72 -149 72q-98 0 -151 -72q-43 -59 -43 -142v-175q0 -82 43 -141q53 -73 151 -73q97 0 149 73
q44 59 44 141z" />
    <glyph glyph-name="P" unicode="P" horiz-adv-x="533" 
d="M498 493q0 -94 -56 -154q-61 -65 -165 -65h-127v-274h-64v712h191q104 0 165 -65q56 -61 56 -154zM433 493q0 65 -35 107q-42 50 -122 50h-126v-316h127q80 0 122 51q34 43 34 108z" />
    <glyph glyph-name="Q" unicode="Q" horiz-adv-x="656" 
d="M328 54q97 0 150 72q44 59 44 141v175q0 83 -44 143q-53 72 -150 72q-98 0 -151 -72q-42 -59 -42 -143v-175q0 -82 42 -141q53 -72 151 -72zM328 -9q-117 0 -190 82q-68 77 -68 191v181q0 117 68 194q72 80 190 80q116 0 189 -83q69 -78 69 -191v-181q0 -93 -47 -164.5
t-130 -96.5l64 -176l-45 -17q-3 -1 -5 -1q-10 0 -13 10l-63 173q-9 -1 -19 -1z" />
    <glyph glyph-name="R" unicode="R" horiz-adv-x="569" 
d="M509 497q0 -65 -36 -117q-38 -56 -108 -78l49 -108l77 -194h-72l-116 290q-5 -1 -16 -1h-136v-289h-65v683q129 37 212 37q100 0 158 -67q53 -62 53 -156zM443 497q0 66 -33 110q-38 51 -112 51q-68 0 -147 -23v-287h139q75 0 116 46q37 41 37 103z" />
    <glyph glyph-name="S" unicode="S" horiz-adv-x="505" 
d="M455 187q0 -89 -58 -142t-158 -53q-79 0 -189 35l11 61q121 -34 177 -34q76 0 115 38q36 35 36 95q0 71 -86 119q-79 40 -159 79q-86 57 -86 149q0 87 57.5 136.5t151.5 49.5q74 0 159 -30l-15 -59q-66 26 -144 26q-142 0 -142 -123q0 -67 86 -111l158 -78
q86 -58 86 -158z" />
    <glyph glyph-name="T" unicode="T" horiz-adv-x="559" 
d="M508 650h-197v-650h-65v650h-196v62h458v-62z" />
    <glyph glyph-name="U" unicode="U" horiz-adv-x="639" 
d="M564 263q0 -130 -64 -200.5t-180 -70.5q-117 0 -181 70.5t-64 200.5v449h64v-468q0 -80 44 -132q49 -58 137 -58q87 0 135 58q44 52 44 132v468h65v-449z" />
    <glyph glyph-name="V" unicode="V" horiz-adv-x="599" 
d="M569 712l-232 -712h-75l-232 712h66l203 -632l36 113l169 519h65z" />
    <glyph glyph-name="W" unicode="W" horiz-adv-x="858" 
d="M809 712l-138 -712h-85l-128 557q-9 41 -31 41q-21 0 -30 -41l-128 -557h-86l-138 712h67l117 -613l11 69l94 405q21 89 93 89q75 0 95 -89l105 -474l14 98l101 515h67z" />
    <glyph glyph-name="X" unicode="X" horiz-adv-x="603" 
d="M565 0h-78l-185 316l-185 -316h-77l222 372l-196 340h77l159 -282l159 282h78l-197 -340z" />
    <glyph glyph-name="Y" unicode="Y" horiz-adv-x="572" 
d="M527 712l-39 -208q-16 -87 -47 -132q-41 -62 -123 -77v-295h-66v295q-80 15 -122 77q-30 46 -46 132l-39 208h65l37 -198q15 -80 37 -113q32 -47 101 -47q71 0 103 47q23 32 38 113l37 198h64z" />
    <glyph glyph-name="Z" unicode="Z" horiz-adv-x="547" 
d="M496 0h-438l-8 65l299 492l64 93h-341l-7 62h410l11 -60l-300 -497l-63 -93h373v-62z" />
    <glyph glyph-name="bracketleft" unicode="[" horiz-adv-x="358" 
d="M273 -186h-168v960h168v-55h-108v-849h108v-56z" />
    <glyph glyph-name="backslash" unicode="\" horiz-adv-x="373" 
d="M316 0h-51l-208 787h51z" />
    <glyph glyph-name="bracketright" unicode="]" horiz-adv-x="358" 
d="M273 -186h-168v56h108v849h-108v55h168v-960z" />
    <glyph glyph-name="asciicircum" unicode="^" horiz-adv-x="607" 
d="M511 329h-71l-136 301l-137 -301h-71l176 366h65z" />
    <glyph glyph-name="underscore" unicode="_" horiz-adv-x="504" 
d="M444 -107h-384v58h384v-58z" />
    <glyph glyph-name="grave" unicode="`" horiz-adv-x="361" 
d="M301 613l-19 -42l-222 92l25 56z" />
    <glyph glyph-name="a" unicode="a" horiz-adv-x="480" 
d="M359 84v159h-125q-55 0 -85.5 -24t-30.5 -66q0 -46 26 -75q29 -32 77 -32q62 0 138 38zM422 0h-50l-8 40q-75 -48 -146 -48q-72 0 -117.5 43t-45.5 115t52 111q47 35 124 35h128v44q0 70 -26 102t-87 32q-64 0 -140 -22l-14 58q75 25 154 25q86 0 131 -48.5t45 -130.5
v-356z" />
    <glyph glyph-name="b" unicode="b" horiz-adv-x="545" 
d="M417 194v136q0 144 -129 144q-67 0 -145 -39v-340q84 -42 145 -42q62 0 95.5 38t33.5 103zM480 181q0 -80 -51 -133q-54 -56 -141 -56q-54 0 -152 50l-8 -42h-48v748l63 8v-158q0 -30 -4 -108q92 45 149 45q88 0 140 -54.5t52 -135.5v-164z" />
    <glyph glyph-name="c" unicode="c" horiz-adv-x="485" 
d="M422 21q-87 -29 -155 -29q-93 0 -150 64q-52 60 -52 144v127q0 85 52 144q57 64 150 64q65 0 152 -29l-15 -57q-93 25 -137 25q-71 0 -108 -49q-31 -41 -31 -101v-121q0 -59 31 -100q37 -50 108 -50q50 0 144 23z" />
    <glyph glyph-name="d" unicode="d" horiz-adv-x="545" 
d="M464 0h-48l-8 42q-98 -50 -151 -50q-87 0 -141 56q-51 53 -51 133v164q0 81 52 135.5t140 54.5q56 0 148 -45q-4 45 -4 108v150h63v-748zM401 95v340q-78 39 -144 39q-129 0 -129 -144v-136q0 -65 33 -103t96 -38q60 0 144 42z" />
    <glyph glyph-name="e" unicode="e" horiz-adv-x="523" 
d="M462 267q0 -17 -17 -17h-317v-51q0 -58 32 -98q39 -48 109 -48q64 0 157 28l14 -57q-90 -32 -171 -32q-94 0 -151 64q-53 58 -53 143v127q0 86 54.5 147.5t144.5 61.5t146 -65q52 -60 52 -144v-59zM399 305v21q0 58 -31 99q-37 49 -104 49t-104 -49q-32 -41 -32 -102v-18
h271z" />
    <glyph glyph-name="f" unicode="f" horiz-adv-x="374" 
d="M345 746l-9 -58q-44 7 -63 7q-45 0 -65 -21q-22 -24 -22 -81v-66h137v-58h-137v-453q0 -16 -15 -16h-48v469l-88 6v52h88v72q0 74 39 115.5t111 41.5q34 0 72 -10z" />
    <glyph glyph-name="g" unicode="g" horiz-adv-x="541" 
d="M404 102v330q-84 42 -144 42q-63 0 -96 -38t-33 -103v-128q0 -144 129 -144q68 0 144 41zM467 -15q0 -76 -47.5 -124t-124.5 -48h-118l-12 58h132q49 0 78 32t29 79v63q-90 -45 -144 -45q-88 0 -140 54t-52 135v157q0 80 52.5 134.5t139.5 54.5q56 0 151 -50l7 42h49
v-542z" />
    <glyph glyph-name="h" unicode="h" horiz-adv-x="535" 
d="M465 16q0 -16 -15 -16h-48v337q0 137 -111 137q-66 0 -148 -41v-433h-63v748h63v-150q0 -64 -4 -110q94 47 152 47q83 0 130 -53q44 -50 44 -133v-333z" />
    <glyph glyph-name="i" unicode="i" horiz-adv-x="250" 
d="M169 16q0 -16 -15 -16h-48v469l-66 6v52h129v-511zM183 695q0 -19 -13.5 -32t-31.5 -13q-19 0 -32 13t-13 32t13 31.5t32 12.5q18 0 31.5 -12.5t13.5 -31.5z" />
    <glyph glyph-name="j" unicode="j" horiz-adv-x="266" 
d="M185 -54q0 -65 -37.5 -103t-98.5 -38q-24 0 -60 9l10 60q34 -8 50 -8q73 0 73 93v510l-66 6v52h129v-581zM198 695q0 -19 -13.5 -32t-32.5 -13t-32 13t-13 32t13 31.5t32 12.5t32.5 -12.5t13.5 -31.5z" />
    <glyph glyph-name="k" unicode="k" horiz-adv-x="482" 
d="M449 0h-70l-140 260l-96 -26v-218q0 -16 -15 -16h-48v748h63v-452l115 31q35 10 51 48l60 152h63l-69 -174q-22 -57 -68 -76z" />
    <glyph glyph-name="l" unicode="l" horiz-adv-x="223" 
d="M172 44l-12 -53q-35 3 -57.5 24.5t-22.5 56.5v675h63v-669q0 -27 29 -34z" />
    <glyph glyph-name="m" unicode="m" horiz-adv-x="837" 
d="M759 16q0 -16 -15 -16h-49v322q0 152 -123 152q-63 0 -96 -54q-28 -44 -28 -111v-309h-64v309q0 67 -27 111q-33 54 -96 54q-124 0 -124 -152v-322h-63v328q0 91 48 147q50 60 136 60q104 0 158 -100q51 100 159 100q86 0 136 -60q48 -56 48 -147v-312z" />
    <glyph glyph-name="n" unicode="n" horiz-adv-x="535" 
d="M465 16q0 -16 -15 -16h-48v336q0 138 -111 138q-66 0 -148 -41v-433h-63v527h49l8 -42q98 50 154 50q83 0 130 -54q44 -50 44 -133v-332z" />
    <glyph glyph-name="o" unicode="o" horiz-adv-x="544" 
d="M478 199q0 -89 -56 -148t-150 -59t-150.5 59t-56.5 148v127q0 90 56 149.5t149 59.5q95 0 151.5 -59.5t56.5 -149.5v-127zM415 207v112q0 68 -34 109q-39 46 -111 46q-71 0 -108 -46q-34 -41 -34 -109v-112q0 -68 34 -109q38 -45 110 -45t109 45q34 41 34 109z" />
    <glyph glyph-name="p" unicode="p" horiz-adv-x="539" 
d="M410 197v135q0 66 -33 104t-96 38q-65 0 -144 -43v-338q74 -40 144 -40q129 0 129 144zM473 182q0 -81 -51 -134q-54 -56 -141 -56q-56 0 -148 45q3 -44 4 -108v-117h-63v715h48l8 -43q96 51 151 51q88 0 141 -56q51 -52 51 -133v-164z" />
    <glyph glyph-name="q" unicode="q" horiz-adv-x="539" 
d="M464 -187l-63 -8v124q0 64 4 108q-92 -45 -148 -45q-87 0 -141 56q-51 53 -51 134v164q0 81 51 133q53 56 141 56q55 0 151 -51l8 43h48v-714zM401 93v338q-79 43 -144 43q-63 0 -96 -38t-33 -104v-135q0 -144 129 -144q70 0 144 40z" />
    <glyph glyph-name="r" unicode="r" horiz-adv-x="338" 
d="M311 530l-9 -59q-19 3 -41 3q-53 0 -118 -68v-390q0 -16 -15 -16h-48v527h50l7 -64q72 72 125 72q23 0 49 -5z" />
    <glyph glyph-name="s" unicode="s" horiz-adv-x="430" 
d="M372 141q0 -68 -45.5 -108.5t-121.5 -40.5q-63 0 -145 28l11 58q100 -25 134 -25q103 0 103 88q0 48 -62 79q-57 28 -115 56q-62 42 -62 115q0 67 44 105.5t116 38.5q53 0 119 -23l-14 -56q-60 18 -105 18q-97 0 -97 -83q0 -46 62 -76q58 -27 116 -55q62 -42 62 -119z
" />
    <glyph glyph-name="t" unicode="t" horiz-adv-x="349" 
d="M304 1q-33 -9 -64 -9q-70 0 -109 45q-35 39 -35 97v335h-74v58h76l10 167h51v-167h123v-58h-123v-325q0 -91 81 -91q23 0 57 7z" />
    <glyph glyph-name="u" unicode="u" horiz-adv-x="530" 
d="M454 0h-49l-8 42q-98 -50 -153 -50q-83 0 -130 54q-44 50 -44 132v331q0 18 16 18h47v-337q0 -137 111 -137q60 0 147 40v434h63v-527z" />
    <glyph glyph-name="v" unicode="v" horiz-adv-x="476" 
d="M453 527l-178 -527h-72l-178 527h67l147 -453l20 70l126 383h68z" />
    <glyph glyph-name="w" unicode="w" horiz-adv-x="725" 
d="M688 527l-128 -527h-81l-97 325l-23 91l-22 -91l-97 -325h-77l-128 527h64l106 -447l15 64l95 342h88l113 -406l14 64l94 383h64z" />
    <glyph glyph-name="x" unicode="x" horiz-adv-x="456" 
d="M426 0h-72l-131 223l-122 -223h-71l156 275l-146 252h70l113 -199l111 199h71l-145 -252z" />
    <glyph glyph-name="y" unicode="y" horiz-adv-x="501" 
d="M432 527l-25 -551q-8 -163 -165 -163h-91l-7 58h99q70 0 90 51q9 24 13 110q-57 -32 -105 -32q-151 0 -168 180l-33 347h64l32 -340q12 -126 107 -126q45 0 106 33l20 433h63z" />
    <glyph glyph-name="z" unicode="z" horiz-adv-x="463" 
d="M408 0h-343l-10 62l273 404h-263v61h323l9 -60l-273 -406h284v-61z" />
    <glyph glyph-name="braceleft" unicode="{" horiz-adv-x="419" 
d="M334 -186q-103 0 -149 50q-40 44 -40 133v164q0 55 -17 79q-20 27 -73 27v53q53 0 74 28q17 23 17 78v165q0 90 39 134q45 49 149 49v-57q-80 0 -108 -35q-20 -26 -20 -91v-165q0 -49 -15.5 -78t-54.5 -54q39 -25 54.5 -54t15.5 -79v-164q0 -66 20 -92q28 -35 108 -35
v-56z" />
    <glyph glyph-name="bar" unicode="|" horiz-adv-x="264" 
d="M162 -157h-60v931h60v-931z" />
    <glyph glyph-name="braceright" unicode="}" horiz-adv-x="419" 
d="M364 267q-53 0 -71.5 -25.5t-18.5 -80.5v-164q0 -89 -40 -133q-46 -50 -149 -50v56q80 0 108 35q20 26 20 92v164q0 50 15.5 79t54.5 54q-39 25 -54.5 54t-15.5 78v165q0 65 -20 91q-28 35 -108 35v57q104 0 149 -49q39 -44 39 -134v-165q0 -55 17 -78q21 -28 74 -28v-53
z" />
    <glyph glyph-name="asciitilde" unicode="~" horiz-adv-x="618" 
d="M513 266q-49 -74 -117 -74q-43 0 -98.5 47t-76.5 47q-48 0 -81 -45l-35 31q52 75 118 75q43 0 99 -47.5t77 -47.5q41 0 79 46z" />
    <glyph glyph-name="nonbreakingspace" unicode="&#xa0;" 
 />
    <glyph glyph-name="exclamdown" unicode="&#xa1;" horiz-adv-x="337" 
d="M219 561q0 -20 -14.5 -35t-34.5 -15t-35 15t-15 35t15 34.5t35 14.5q19 0 34 -15t15 -34zM208 -110h-82l12 493l57 9z" />
    <glyph glyph-name="cent" unicode="&#xa2;" horiz-adv-x="580" 
d="M467 20q-75 -25 -140 -28l-5 -63l-36 3l5 60q-84 8 -134 70q-47 58 -47 137v127q0 85 52 144q57 64 150 64q13 0 26 -1l5 64l36 -3l-6 -65q41 -7 92 -24l-15 -57q-29 8 -82 20l-35 -415q45 3 123 22zM332 473h-20q-71 0 -108 -49q-31 -41 -31 -101v-121q0 -56 27 -96
q33 -47 96 -53z" />
    <glyph glyph-name="sterling" unicode="&#xa3;" horiz-adv-x="580" 
d="M511 693l-18 -57q-63 22 -126 22q-149 0 -149 -175v-137h253v-53h-256l-16 -230h294v-47q0 -16 -15 -16h-340l16 293h-66v53h66v146q0 110 56 169t157 59q73 0 144 -27z" />
    <glyph glyph-name="currency" unicode="&#xa4;" horiz-adv-x="580" 
d="M530 13q-74 -21 -168 -21q-118 0 -180 69q-59 65 -59 177v31h-75v43h75v88h-75v43h75v31q0 114 59 178q62 68 180 68q82 0 154 -17l-14 -61q-70 16 -140 16q-175 0 -175 -185v-30h281l-8 -43h-273v-88h281l-8 -43h-273v-30q0 -184 174 -184q79 0 155 20z" />
    <glyph glyph-name="yen" unicode="&#xa5;" horiz-adv-x="580" 
d="M527 712l-181 -381h102v-48h-125v-80h125v-47h-125v-156h-67v156h-123v47h123v80h-123v48h101l-181 381h67l170 -356l168 356h69z" />
    <glyph glyph-name="brokenbar" unicode="&#xa6;" horiz-adv-x="264" 
d="M162 468h-64v307h64v-307zM162 -156h-64v306h64v-306z" />
    <glyph glyph-name="section" unicode="&#xa7;" horiz-adv-x="531" 
d="M448 238q0 -65 -39 -112q22 -37 22 -85q0 -80 -53 -126.5t-140 -46.5q-79 0 -162 25l11 61q89 -24 151 -24q128 0 128 111q0 63 -89 106q-44 20 -89 41q-50 25 -74 55q-32 39 -32 95q0 67 41 111q-25 37 -25 85q0 77 54 123q51 43 132 43q67 0 141 -26l-14 -59
q-65 24 -127 24q-121 0 -121 -105q0 -58 83 -98q46 -21 92 -43q52 -26 78 -57q32 -40 32 -98zM382 238q0 44 -41 77q-27 22 -88 49q-67 29 -85 41q-21 -24 -21 -67q0 -42 42 -74q26 -20 91 -49t85 -44q17 25 17 67z" />
    <glyph glyph-name="dieresis" unicode="&#xa8;" horiz-adv-x="359" 
d="M309 636q0 -19 -13.5 -32.5t-32.5 -13.5t-32.5 13.5t-13.5 32.5t13.5 32.5t32.5 13.5t32.5 -13.5t13.5 -32.5zM142 636q0 -19 -13.5 -32.5t-32.5 -13.5t-32.5 13.5t-13.5 32.5t13.5 32.5t32.5 13.5t32.5 -13.5t13.5 -32.5z" />
    <glyph glyph-name="copyright" unicode="&#xa9;" horiz-adv-x="856" 
d="M754 337q0 -139 -96 -238t-230 -99t-230 99t-96 238t96 237t230 98t230 -98t96 -237zM708 337q0 120 -82 204.5t-198 84.5t-198 -84.5t-82 -204.5t82 -205t198 -85t198 85t82 205zM519 173q-55 -16 -99 -16q-61 0 -98.5 33.5t-37.5 92.5v107q0 60 37.5 93.5t98.5 33.5
q44 0 99 -16l-12 -45q-52 15 -87 15q-87 0 -87 -81v-107q0 -80 87 -80q37 0 87 14z" />
    <glyph glyph-name="ordfeminine" unicode="&#xaa;" horiz-adv-x="469" 
d="M369 328h-40l-6 24q-55 -29 -103 -29q-53 0 -86.5 29.5t-33.5 79.5t37 77q34 25 90 25h91v23q0 85 -78 85q-36 0 -102 -18l-12 46q65 20 114 20q63 0 96 -33t33 -89v-240zM318 394v97h-89q-79 0 -79 -59q0 -28 19 -46t51 -18q42 0 98 26z" />
    <glyph glyph-name="guillemotleft" unicode="&#xab;" horiz-adv-x="605" 
d="M503 84h-78l-146 183l146 182h78l-146 -182zM326 84h-78l-146 183l146 182h78l-146 -182z" />
    <glyph glyph-name="logicalnot" unicode="&#xac;" horiz-adv-x="581" 
d="M482 65h-66v172h-316v63h382v-235z" />
    <glyph glyph-name="minus" unicode="&#xad;" 
 />
    <glyph glyph-name="minus" unicode="&#x2212;" 
 />
    <glyph glyph-name="registered" unicode="&#xae;" horiz-adv-x="855" 
d="M753 337q0 -139 -95.5 -238t-229.5 -99t-230 99t-96 238t96 237t230 98t229.5 -98t95.5 -237zM708 337q0 120 -82 204.5t-198 84.5t-198 -84.5t-82 -204.5t82 -205t198 -85t198 85t82 205zM549 156h-57l-63 138h-68v-138h-53v341q80 21 121 21q56 0 87.5 -32t31.5 -79
q0 -66 -65 -101zM497 407q0 26 -16 44q-18 22 -52 22q-22 0 -68 -10v-124h68q68 0 68 68z" />
    <glyph glyph-name="macron" unicode="&#xaf;" horiz-adv-x="321" 
d="M321 591h-320v58h320v-58z" />
    <glyph glyph-name="macron" unicode="&#x2c9;" horiz-adv-x="321" 
d="M321 591h-320v58h320v-58z" />
    <glyph glyph-name="degree" unicode="&#xb0;" horiz-adv-x="395" 
d="M310 582q0 -46 -33 -78.5t-79 -32.5q-47 0 -79.5 32.5t-32.5 78.5t32.5 79t79.5 33q46 0 79 -33t33 -79zM274 582q0 31 -22.5 53.5t-53.5 22.5t-53 -22.5t-22 -53.5t22 -53t53 -22t53.5 22t22.5 53z" />
    <glyph glyph-name="plusminus" unicode="&#xb1;" horiz-adv-x="591" 
d="M492 235h-163v-142h-66v142h-163v67h163v138h66v-138h163v-67zM492 -13h-392v59h392v-59z" />
    <glyph glyph-name="twosuperior" unicode="&#xb2;" 
 />
    <glyph glyph-name="threesuperior" unicode="&#xb3;" 
 />
    <glyph glyph-name="acute" unicode="&#xb4;" horiz-adv-x="361" 
d="M301 683l-222 -92l-19 42l216 106z" />
    <glyph glyph-name="mu" unicode="&#xb5;" 
 />
    <glyph glyph-name="mu" unicode="&#x3bc;" 
 />
    <glyph glyph-name="paragraph" unicode="&#xb6;" horiz-adv-x="679" 
d="M573 -133h-63v761h-129v-761h-65v416q-91 4 -151 62.5t-60 142.5t62.5 143.5t150.5 59.5h255v-824z" />
    <glyph glyph-name="periodcentered" unicode="&#xb7;" horiz-adv-x="197" 
d="M149 287q0 -20 -15 -34.5t-35 -14.5q-19 0 -34 14.5t-15 34.5t14.5 35.5t34.5 15.5t35 -15.5t15 -35.5z" />
    <glyph glyph-name="periodcentered" unicode="&#x2219;" horiz-adv-x="197" 
d="M149 287q0 -20 -15 -34.5t-35 -14.5q-19 0 -34 14.5t-15 34.5t14.5 35.5t34.5 15.5t35 -15.5t15 -35.5z" />
    <glyph glyph-name="cedilla" unicode="&#xb8;" horiz-adv-x="287" 
d="M222 -89q0 -54 -35 -82q-30 -23 -75 -23q-24 0 -47 5l6 52q24 -4 38 -4q57 0 57 65v73h56v-86z" />
    <glyph glyph-name="onesuperior" unicode="&#xb9;" 
 />
    <glyph glyph-name="ordmasculine" unicode="&#xba;" horiz-adv-x="496" 
d="M396 464q0 -61 -40 -101t-107 -40t-108 40t-41 101v84q0 61 40.5 101.5t107.5 40.5t107.5 -40.5t40.5 -101.5v-84zM345 470v73q0 99 -97 99q-98 0 -98 -99v-73q0 -44 25 -72t74 -28q96 0 96 100z" />
    <glyph glyph-name="guillemotright" unicode="&#xbb;" horiz-adv-x="605" 
d="M503 267l-146 -183h-78l146 183l-146 182h78zM326 267l-146 -183h-78l146 183l-146 182h78z" />
    <glyph glyph-name="onequarter" unicode="&#xbc;" 
 />
    <glyph glyph-name="onehalf" unicode="&#xbd;" 
 />
    <glyph glyph-name="threequarters" unicode="&#xbe;" 
 />
    <glyph glyph-name="questiondown" unicode="&#xbf;" horiz-adv-x="551" 
d="M343 569q0 -20 -14.5 -35t-34.5 -15t-35 15t-15 35t15 34.5t35 14.5q19 0 34 -15t15 -34zM433 -67q-81 -43 -147 -43q-77 0 -123 48q-43 44 -43 108q0 47 24 88q4 8 50 65q34 42 46 72q21 49 21 122l65 7q0 -86 -23 -143q-14 -35 -50 -81q-23 -30 -47 -59
q-23 -35 -23 -71q0 -39 27.5 -66t75.5 -27t120 36z" />
    <glyph glyph-name="Agrave" unicode="&#xc0;" horiz-adv-x="655" 
d="M451 805l-19 -42l-222 92l25 56zM609 0h-63l-60 219h-318l-59 -219h-64l165 611q29 109 117 109t117 -109zM470 281l-84 313q-17 65 -59 65q-40 0 -58 -65l-85 -313h286z" />
    <glyph glyph-name="Aacute" unicode="&#xc1;" horiz-adv-x="655" 
d="M421 853l-222 -92l-19 42l216 106zM609 0h-63l-60 219h-318l-59 -219h-64l165 611q29 109 117 109t117 -109zM470 281l-84 313q-17 65 -59 65q-40 0 -58 -65l-85 -313h286z" />
    <glyph glyph-name="Acircumflex" unicode="&#xc2;" horiz-adv-x="655" 
d="M468 799l-31 -38l-115 95l-114 -95l-32 38l146 120zM609 0h-63l-60 219h-318l-59 -219h-64l165 611q29 109 117 109t117 -109zM470 281l-84 313q-17 65 -59 65q-40 0 -58 -65l-85 -313h286z" />
    <glyph glyph-name="Atilde" unicode="&#xc3;" horiz-adv-x="655" 
d="M458 823q-31 -59 -79 -59q-29 0 -65.5 20.5t-47.5 20.5q-25 0 -43 -33l-38 28q30 60 79 60q28 0 65.5 -20.5t48.5 -20.5q22 0 42 32zM609 0h-63l-60 219h-318l-59 -219h-64l165 611q29 109 117 109t117 -109zM470 281l-84 313q-17 65 -59 65q-40 0 -58 -65l-85 -313h286z
" />
    <glyph glyph-name="Adieresis" unicode="&#xc4;" horiz-adv-x="655" 
d="M454 810q0 -19 -13.5 -32.5t-32.5 -13.5t-32.5 13.5t-13.5 32.5t13.5 32.5t32.5 13.5t32.5 -13.5t13.5 -32.5zM287 810q0 -19 -13.5 -32.5t-32.5 -13.5t-32.5 13.5t-13.5 32.5t13.5 32.5t32.5 13.5t32.5 -13.5t13.5 -32.5zM609 0h-63l-60 219h-318l-59 -219h-64l165 611
q29 109 117 109t117 -109zM470 281l-84 313q-17 65 -59 65q-40 0 -58 -65l-85 -313h286z" />
    <glyph glyph-name="Aring" unicode="&#xc5;" horiz-adv-x="655" 
d="M406 844q0 -33 -23.5 -56.5t-57.5 -23.5q-33 0 -56.5 23.5t-23.5 56.5q0 34 23.5 57.5t56.5 23.5q34 0 57.5 -23.5t23.5 -57.5zM609 0h-63l-60 219h-318l-59 -219h-64l165 611q29 109 117 109t117 -109zM376 844q0 21 -15 36t-36 15t-35.5 -15t-14.5 -36t14.5 -35.5
t35.5 -14.5t36 14.5t15 35.5zM470 281l-84 313q-17 65 -59 65q-40 0 -58 -65l-85 -313h286z" />
    <glyph glyph-name="AE" unicode="&#xc6;" horiz-adv-x="906" 
d="M846 15q0 -15 -15 -15h-149q-96 0 -147 50q-48 47 -48 129v42h-280l-99 -221h-63l269 607q47 105 135 105h393v-62h-290v-258h275v-56h-275v-154q0 -58 25 -86q30 -33 105 -33h164v-48zM487 279v371h-38q-32 0 -49.5 -15t-33.5 -52l-134 -304h255z" />
    <glyph glyph-name="Ccedilla" unicode="&#xc7;" horiz-adv-x="540" 
d="M509 25q-83 -26 -159 -32v-82q0 -54 -35 -82q-30 -23 -75 -23q-24 0 -47 5l6 52q24 -4 38 -4q57 0 57 65v68q-113 4 -174 78q-55 67 -55 178v216q0 114 58 182q64 74 184 74q91 0 202 -29l-13 -63q-81 29 -189 29q-178 0 -178 -197v-208q0 -198 177 -198q95 0 188 31z
" />
    <glyph glyph-name="Egrave" unicode="&#xc8;" horiz-adv-x="521" 
d="M411 803l-19 -42l-222 92l25 56zM461 16q0 -16 -17 -16h-169q-93 0 -141 47t-48 127v364q0 81 47.5 127.5t141.5 46.5h183v-62h-183q-125 0 -125 -114v-142h293v-61h-293v-156q0 -115 125 -115h186v-46z" />
    <glyph glyph-name="Eacute" unicode="&#xc9;" horiz-adv-x="521" 
d="M401 856l-222 -92l-19 42l216 106zM461 16q0 -16 -17 -16h-169q-93 0 -141 47t-48 127v364q0 81 47.5 127.5t141.5 46.5h183v-62h-183q-125 0 -125 -114v-142h293v-61h-293v-156q0 -115 125 -115h186v-46z" />
    <glyph glyph-name="Ecircumflex" unicode="&#xca;" horiz-adv-x="521" 
d="M418 799l-31 -38l-115 95l-114 -95l-32 38l146 120zM461 16q0 -16 -17 -16h-169q-93 0 -141 47t-48 127v364q0 81 47.5 127.5t141.5 46.5h183v-62h-183q-125 0 -125 -114v-142h293v-61h-293v-156q0 -115 125 -115h186v-46z" />
    <glyph glyph-name="Edieresis" unicode="&#xcb;" horiz-adv-x="521" 
d="M405 810q0 -19 -13.5 -32.5t-32.5 -13.5t-32.5 13.5t-13.5 32.5t13.5 32.5t32.5 13.5t32.5 -13.5t13.5 -32.5zM238 810q0 -19 -13.5 -32.5t-32.5 -13.5t-32.5 13.5t-13.5 32.5t13.5 32.5t32.5 13.5t32.5 -13.5t13.5 -32.5zM461 16q0 -16 -17 -16h-169q-93 0 -141 47
t-48 127v364q0 81 47.5 127.5t141.5 46.5h183v-62h-183q-125 0 -125 -114v-142h293v-61h-293v-156q0 -115 125 -115h186v-46z" />
    <glyph glyph-name="Igrave" unicode="&#xcc;" horiz-adv-x="224" 
d="M241 805l-19 -42l-222 92l25 56zM144 16q0 -16 -17 -16h-47v712h64v-696z" />
    <glyph glyph-name="Iacute" unicode="&#xcd;" horiz-adv-x="224" 
d="M231 853l-222 -92l-19 42l216 106zM144 16q0 -16 -17 -16h-47v712h64v-696z" />
    <glyph glyph-name="Icircumflex" unicode="&#xce;" horiz-adv-x="226" 
d="M256 799l-31 -38l-115 95l-114 -95l-32 38l146 120zM145 16q0 -16 -17 -16h-47v712h64v-696z" />
    <glyph glyph-name="Idieresis" unicode="&#xcf;" horiz-adv-x="224" 
d="M239 810q0 -19 -13.5 -32.5t-32.5 -13.5t-32.5 13.5t-13.5 32.5t13.5 32.5t32.5 13.5t32.5 -13.5t13.5 -32.5zM72 810q0 -19 -13.5 -32.5t-32.5 -13.5t-32.5 13.5t-13.5 32.5t13.5 32.5t32.5 13.5t32.5 -13.5t13.5 -32.5zM144 16q0 -16 -17 -16h-47v712h64v-696z" />
    <glyph glyph-name="Eth" unicode="&#xd0;" 
 />
    <glyph glyph-name="Ntilde" unicode="&#xd1;" horiz-adv-x="633" 
d="M448 823q-31 -59 -79 -59q-29 0 -65.5 20.5t-47.5 20.5q-25 0 -43 -33l-38 28q30 60 79 60q28 0 65.5 -20.5t48.5 -20.5q22 0 42 32zM546 0h-83l-254 578q-19 43 -31 57.5t-28 15.5v-651h-64v712h58q47 0 72 -25q22 -20 50 -84l224 -501l-9 63v547h65v-712z" />
    <glyph glyph-name="Ograve" unicode="&#xd2;" horiz-adv-x="656" 
d="M451 806l-19 -42l-222 92l25 56zM586 265q0 -116 -69 -193q-72 -80 -189 -80t-190 82q-68 77 -68 191v181q0 117 68 193q72 81 190 81q116 0 189 -83q69 -79 69 -191v-181zM521 268v175q0 82 -44 142q-52 72 -149 72q-98 0 -151 -72q-43 -59 -43 -142v-175q0 -83 43 -142
q53 -72 151 -72q97 0 149 72q44 60 44 142z" />
    <glyph glyph-name="Oacute" unicode="&#xd3;" horiz-adv-x="656" 
d="M421 846l-222 -92l-19 42l216 106zM586 265q0 -116 -69 -193q-72 -80 -189 -80t-190 82q-68 77 -68 191v181q0 116 68 193q72 81 190 81q116 0 189 -84q69 -78 69 -190v-181zM521 268v175q0 82 -44 142q-52 72 -149 72q-98 0 -151 -72q-43 -59 -43 -142v-175
q0 -83 43 -142q53 -72 151 -72q97 0 149 72q44 60 44 142z" />
    <glyph glyph-name="Ocircumflex" unicode="&#xd4;" horiz-adv-x="656" 
d="M468 800l-31 -38l-115 95l-114 -95l-32 38l146 120zM586 265q0 -116 -69 -192q-72 -81 -189 -81t-190 82q-68 77 -68 191v181q0 117 68 194q72 80 190 80q116 0 189 -83q69 -78 69 -191v-181zM521 268v175q0 83 -44 142q-52 72 -149 72q-98 0 -151 -72q-43 -59 -43 -142
v-175q0 -82 43 -141q53 -73 151 -73q97 0 149 73q44 59 44 141z" />
    <glyph glyph-name="Otilde" unicode="&#xd5;" horiz-adv-x="656" 
d="M458 824q-31 -59 -79 -59q-29 0 -65.5 20.5t-47.5 20.5q-25 0 -43 -33l-38 28q30 60 79 60q28 0 65.5 -20.5t48.5 -20.5q22 0 42 32zM586 265q0 -116 -69 -192q-72 -81 -189 -81t-190 82q-68 77 -68 191v181q0 117 68 194q72 80 190 80q116 0 189 -83q69 -78 69 -191
v-181zM521 268v175q0 83 -44 142q-52 72 -149 72q-98 0 -151 -72q-43 -59 -43 -142v-175q0 -82 43 -141q53 -73 151 -73q97 0 149 73q44 59 44 141z" />
    <glyph glyph-name="Odieresis" unicode="&#xd6;" horiz-adv-x="656" 
d="M454 811q0 -19 -13.5 -32.5t-32.5 -13.5t-32.5 13.5t-13.5 32.5t13.5 32.5t32.5 13.5t32.5 -14t13.5 -32zM287 811q0 -19 -13.5 -32.5t-32.5 -13.5t-32.5 13.5t-13.5 32.5q0 18 13.5 32t32.5 14t32.5 -14t13.5 -32zM586 265q0 -117 -69 -193q-72 -80 -189 -80t-190 81
q-68 77 -68 192v181q0 116 68 193q72 81 190 81q116 0 189 -84q69 -78 69 -190v-181zM521 268v175q0 82 -44 141q-52 73 -149 73q-98 0 -151 -73q-43 -59 -43 -141v-175q0 -83 43 -142q53 -72 151 -72q97 0 149 72q44 59 44 142z" />
    <glyph glyph-name="multiply" unicode="&#xd7;" 
 />
    <glyph glyph-name="Oslash" unicode="&#xd8;" horiz-adv-x="656" 
d="M586 265q0 -116 -69 -193q-72 -80 -189 -80q-53 0 -99 18l-27 -76l-41 16l29 80q-57 36 -88.5 98.5t-31.5 136.5v181q0 117 68 193q72 81 190 81q52 0 99 -19l27 78l41 -16l-28 -82q57 -36 88 -99t31 -136v-181zM522 268v175q0 116 -77 177l-195 -551q34 -14 78 -14
q97 0 150 72q44 59 44 141zM406 643q-35 15 -78 15q-98 0 -151 -73q-42 -59 -42 -142v-175q0 -118 76 -177z" />
    <glyph glyph-name="Ugrave" unicode="&#xd9;" horiz-adv-x="641" 
d="M441 806l-19 -42l-222 92l25 56zM564 263q0 -129 -64 -200t-180 -71q-117 0 -181 71t-64 200v449h64v-468q0 -79 44 -131q49 -59 137 -59q87 0 135 59q44 52 44 131v468h65v-449z" />
    <glyph glyph-name="Uacute" unicode="&#xda;" horiz-adv-x="641" 
d="M441 854l-222 -92l-19 42l216 106zM564 263q0 -129 -64 -200t-180 -71q-117 0 -181 71t-64 200v449h64v-468q0 -80 44 -132q49 -58 137 -58q87 0 135 58q44 53 44 132v468h65v-449z" />
    <glyph glyph-name="Ucircumflex" unicode="&#xdb;" horiz-adv-x="641" 
d="M463 800l-31 -38l-115 95l-114 -95l-32 38l146 120zM564 263q0 -129 -64 -200t-180 -71q-117 0 -181 71t-64 200v449h64v-468q0 -79 44 -131q49 -59 137 -59q87 0 135 59q44 52 44 131v468h65v-449z" />
    <glyph glyph-name="Udieresis" unicode="&#xdc;" horiz-adv-x="641" 
d="M454 811q0 -19 -13.5 -32.5t-32.5 -13.5t-32.5 13.5t-13.5 32.5t13.5 32.5t32.5 13.5t32.5 -14t13.5 -32zM287 811q0 -19 -13.5 -32.5t-32.5 -13.5t-32.5 13.5t-13.5 32.5q0 18 13.5 32t32.5 14t32.5 -14t13.5 -32zM564 263q0 -130 -64 -200.5t-180 -70.5
q-117 0 -181 70.5t-64 200.5v449h64v-468q0 -80 44 -132q49 -58 137 -58q87 0 135 58q44 52 44 132v468h65v-449z" />
    <glyph glyph-name="Yacute" unicode="&#xdd;" 
 />
    <glyph glyph-name="Thorn" unicode="&#xde;" 
 />
    <glyph glyph-name="germandbls" unicode="&#xdf;" horiz-adv-x="602" 
d="M500 171q0 -80 -51 -128q-53 -51 -146 -51q-41 0 -77 12l8 59q41 -9 69 -9q63 0 98 31t35 79q0 51 -42 92l-78 62q-42 36 -42 77q0 45 52.5 86.5t52.5 81.5q0 94 -106 94q-51 0 -106 -20v-637h-65v678q96 42 171 42t123 -42.5t48 -114.5q0 -40 -28 -75q-11 -14 -51 -49
q-28 -24 -28 -38q0 -21 42 -54q61 -49 79 -69q42 -49 42 -107z" />
    <glyph glyph-name="agrave" unicode="&#xe0;" horiz-adv-x="480" 
d="M371 613l-19 -42l-222 92l25 56zM359 84v159h-125q-55 0 -85.5 -24t-30.5 -66q0 -46 26 -75q29 -32 77 -32q62 0 138 38zM422 0h-50l-8 40q-75 -48 -146 -48q-72 0 -117.5 43t-45.5 115t52 111q47 35 124 35h128v44q0 70 -26 102t-87 32q-64 0 -140 -22l-14 58
q75 25 154 25q86 0 131 -48.5t45 -130.5v-356z" />
    <glyph glyph-name="aacute" unicode="&#xe1;" horiz-adv-x="480" 
d="M351 683l-222 -92l-19 42l216 106zM359 84v159h-125q-55 0 -85.5 -24t-30.5 -66q0 -46 26 -75q29 -32 77 -32q62 0 138 38zM422 0h-50l-8 40q-75 -48 -146 -48q-72 0 -117.5 43t-45.5 115t52 111q47 35 124 35h128v44q0 70 -26 102t-87 32q-64 0 -140 -22l-14 58
q75 25 154 25q86 0 131 -48.5t45 -130.5v-356z" />
    <glyph glyph-name="acircumflex" unicode="&#xe2;" horiz-adv-x="480" 
d="M387 629l-31 -38l-115 95l-114 -95l-32 38l146 120zM359 84v159h-125q-55 0 -85.5 -24t-30.5 -66q0 -46 26 -75q29 -32 77 -32q62 0 138 38zM422 0h-50l-8 40q-75 -48 -146 -48q-72 0 -117.5 43t-45.5 115t52 111q47 35 124 35h128v44q0 70 -26 102t-87 32
q-64 0 -140 -22l-14 58q75 25 154 25q86 0 131 -48.5t45 -130.5v-356z" />
    <glyph glyph-name="atilde" unicode="&#xe3;" horiz-adv-x="480" 
d="M378 651q-31 -59 -79 -59q-29 0 -65.5 20.5t-47.5 20.5q-25 0 -43 -33l-38 28q30 60 79 60q28 0 65.5 -20.5t48.5 -20.5q22 0 42 32zM359 84v159h-125q-55 0 -85.5 -24t-30.5 -66q0 -46 26 -75q29 -32 77 -32q62 0 138 38zM422 0h-50l-8 40q-75 -48 -146 -48
q-72 0 -117.5 43t-45.5 115t52 111q47 35 124 35h128v44q0 70 -26 102t-87 32q-64 0 -140 -22l-14 58q75 25 154 25q86 0 131 -48.5t45 -130.5v-356z" />
    <glyph glyph-name="adieresis" unicode="&#xe4;" horiz-adv-x="480" 
d="M364 636q0 -19 -13.5 -32.5t-32.5 -13.5t-32.5 13.5t-13.5 32.5t13.5 32.5t32.5 13.5t32.5 -13.5t13.5 -32.5zM197 636q0 -19 -13.5 -32.5t-32.5 -13.5t-32.5 13.5t-13.5 32.5t13.5 32.5t32.5 13.5t32.5 -13.5t13.5 -32.5zM359 84v159h-125q-55 0 -85.5 -24t-30.5 -66
q0 -46 26 -75q29 -32 77 -32q62 0 138 38zM422 0h-50l-8 40q-75 -48 -146 -48q-72 0 -117.5 43t-45.5 115t52 111q47 35 124 35h128v44q0 70 -26 102t-87 32q-64 0 -140 -22l-14 58q75 25 154 25q86 0 131 -48.5t45 -130.5v-356z" />
    <glyph glyph-name="aring" unicode="&#xe5;" horiz-adv-x="480" 
d="M328 672q0 -33 -23.5 -56.5t-57.5 -23.5q-33 0 -56.5 23.5t-23.5 56.5q0 34 23.5 57.5t56.5 23.5q34 0 57.5 -23.5t23.5 -57.5zM298 672q0 21 -15 36t-36 15t-35.5 -15t-14.5 -36t14.5 -35.5t35.5 -14.5t36 14.5t15 35.5zM359 84v159h-125q-55 0 -85.5 -24t-30.5 -66
q0 -46 26 -75q29 -32 77 -32q62 0 138 38zM422 0h-50l-8 40q-75 -48 -146 -48q-72 0 -117.5 43t-45.5 115t52 111q47 35 124 35h128v44q0 70 -26 102t-87 32q-64 0 -140 -22l-14 58q75 25 154 25q86 0 131 -48.5t45 -130.5v-356z" />
    <glyph glyph-name="ae" unicode="&#xe6;" horiz-adv-x="817" 
d="M756 267q0 -17 -17 -17h-317v-51q0 -58 32 -98q39 -48 109 -48q64 0 157 28l14 -57q-90 -32 -171 -32q-85 0 -141 53v-45h-50l-8 39q-82 -47 -146 -47q-72 0 -117.5 44t-45.5 117q0 72 50 111q46 36 123 36h131v40q0 70 -26 102t-87 32q-53 0 -140 -25l-14 58
q84 28 154 28q110 0 153 -79q57 79 159 79q90 0 146 -65q52 -60 52 -144v-59zM693 305v21q0 58 -31 99q-37 49 -104 49t-104 -49q-32 -41 -32 -102v-18h271zM359 91v156h-128q-54 0 -83.5 -26t-29.5 -68q0 -44 27 -72t73 -28q65 0 141 38z" />
    <glyph glyph-name="ccedilla" unicode="&#xe7;" horiz-adv-x="485" 
d="M422 23q-63 -21 -117 -27v-83q0 -54 -35 -82q-30 -23 -75 -23q-24 0 -47 5l6 52q24 -4 37 -4q57 0 57 65v68q-85 7 -136 70q-47 58 -47 138v127q0 85 52 144q57 64 150 64q65 0 152 -29l-15 -57q-93 25 -137 25q-71 0 -108 -50q-31 -40 -31 -100v-121q0 -60 31 -101
q37 -49 108 -49q50 0 144 23z" />
    <glyph glyph-name="egrave" unicode="&#xe8;" horiz-adv-x="523" 
d="M391 618l-19 -42l-222 92l25 56zM462 267q0 -17 -17 -17h-317v-51q0 -58 32 -98q39 -48 109 -48q64 0 157 28l14 -57q-90 -32 -171 -32q-94 0 -151 64q-53 58 -53 143v127q0 86 54.5 147.5t144.5 61.5t146 -65q52 -60 52 -144v-59zM399 305v21q0 58 -31 99
q-37 49 -104 49t-104 -49q-32 -41 -32 -102v-18h271z" />
    <glyph glyph-name="eacute" unicode="&#xe9;" horiz-adv-x="523" 
d="M371 684l-222 -92l-19 42l216 106zM462 267q0 -17 -17 -17h-317v-51q0 -58 32 -99q39 -47 109 -47q64 0 157 28l14 -57q-90 -32 -171 -32q-94 0 -151 63q-53 59 -53 144v127q0 86 53 145q56 64 146 64t146 -65q52 -60 52 -144v-59zM399 305v21q0 58 -31 99
q-37 49 -104 49t-104 -49q-32 -42 -32 -102v-18h271z" />
    <glyph glyph-name="ecircumflex" unicode="&#xea;" horiz-adv-x="523" 
d="M407 630l-31 -38l-115 95l-114 -95l-32 38l146 120zM462 267q0 -17 -17 -17h-317v-51q0 -57 32 -98q39 -48 109 -48q64 0 157 28l14 -57q-90 -32 -171 -32q-94 0 -151 64q-53 59 -53 143v127q0 87 53 146q56 63 146 63t146 -64q52 -60 52 -145v-59zM399 305v21
q0 58 -31 100q-37 48 -104 48t-104 -48q-32 -42 -32 -103v-18h271z" />
    <glyph glyph-name="edieresis" unicode="&#xeb;" horiz-adv-x="523" 
d="M394 637q0 -19 -13.5 -32.5t-32.5 -13.5t-32.5 13.5t-13.5 32.5t13.5 32.5t32.5 13.5t32.5 -14t13.5 -32zM227 637q0 -19 -13.5 -32.5t-32.5 -13.5t-32.5 13.5t-13.5 32.5q0 18 13.5 32t32.5 14t32.5 -14t13.5 -32zM462 267q0 -17 -17 -17h-317v-51q0 -58 32 -99
q39 -47 109 -47q64 0 157 28l14 -57q-90 -32 -171 -32q-94 0 -151 63q-53 59 -53 144v127q0 86 53 145q56 64 146 64t146 -65q52 -60 52 -144v-59zM399 305v21q0 58 -31 99q-37 49 -104 49t-104 -49q-32 -42 -32 -102v-18h271z" />
    <glyph glyph-name="igrave" unicode="&#xec;" horiz-adv-x="249" 
d="M245 613l-19 -42l-222 92l25 56zM169 16q0 -16 -15 -16h-48v469l-66 6v52h129v-511z" />
    <glyph glyph-name="iacute" unicode="&#xed;" horiz-adv-x="250" 
d="M237 683l-222 -92l-19 42l216 106zM170 16q0 -16 -15 -16h-48v469l-66 6v52h129v-511z" />
    <glyph glyph-name="icircumflex" unicode="&#xee;" horiz-adv-x="249" 
d="M260 629l-31 -38l-115 95l-114 -95l-32 38l146 120zM169 16q0 -16 -15 -16h-48v469l-66 6v52h129v-511z" />
    <glyph glyph-name="idieresis" unicode="&#xef;" horiz-adv-x="249" 
d="M254 636q0 -19 -13.5 -32.5t-32.5 -13.5t-32.5 13.5t-13.5 32.5t13.5 32.5t32.5 13.5t32.5 -13.5t13.5 -32.5zM87 636q0 -19 -13.5 -32.5t-32.5 -13.5t-32.5 13.5t-13.5 32.5t13.5 32.5t32.5 13.5t32.5 -13.5t13.5 -32.5zM169 16q0 -16 -15 -16h-48v469l-66 6v52h129
v-511z" />
    <glyph glyph-name="eth" unicode="&#xf0;" 
 />
    <glyph glyph-name="ntilde" unicode="&#xf1;" horiz-adv-x="535" 
d="M408 651q-31 -59 -79 -59q-29 0 -65.5 20.5t-47.5 20.5q-25 0 -43 -33l-38 28q30 60 79 60q28 0 65.5 -20.5t48.5 -20.5q22 0 42 32zM465 16q0 -16 -15 -16h-48v336q0 138 -111 138q-66 0 -148 -41v-433h-63v527h49l8 -42q98 50 154 50q83 0 130 -54q44 -50 44 -133v-332
z" />
    <glyph glyph-name="ograve" unicode="&#xf2;" horiz-adv-x="544" 
d="M401 614l-19 -42l-222 92l25 56zM478 199q0 -89 -56 -148t-150 -59t-150.5 59t-56.5 148v127q0 90 56 149.5t149 59.5q95 0 151.5 -59.5t56.5 -149.5v-127zM415 207v112q0 67 -34 109q-39 46 -111 46q-71 0 -108 -46q-34 -41 -34 -109v-112q0 -68 34 -109q38 -45 110 -45
t109 45q34 41 34 109z" />
    <glyph glyph-name="oacute" unicode="&#xf3;" horiz-adv-x="544" 
d="M381 684l-222 -92l-19 42l216 106zM478 199q0 -88 -55 -146q-57 -61 -151 -61t-151 61q-56 58 -56 146v127q0 90 56 149.5t149 59.5q95 0 151.5 -59.5t56.5 -149.5v-127zM415 207v112q0 68 -34 109q-39 46 -111 46q-71 0 -108 -45q-34 -41 -34 -110v-112q0 -67 34 -108
q38 -46 110 -46t109 46q34 41 34 108z" />
    <glyph glyph-name="ocircumflex" unicode="&#xf4;" horiz-adv-x="544" 
d="M414 630l-31 -38l-115 95l-114 -95l-32 38l146 120zM478 199q0 -89 -55 -146q-57 -61 -151 -61t-151 61q-56 58 -56 146v127q0 90 56 149.5t149 59.5q95 0 151.5 -59.5t56.5 -149.5v-127zM415 207v112q0 68 -34 109q-39 46 -111 46q-71 0 -108 -45q-34 -41 -34 -110v-112
q0 -67 34 -108q38 -46 110 -46t109 46q34 40 34 108z" />
    <glyph glyph-name="otilde" unicode="&#xf5;" horiz-adv-x="544" 
d="M398 652q-31 -59 -79 -59q-29 0 -65.5 20.5t-47.5 20.5q-25 0 -43 -33l-38 28q30 60 79 60q28 0 65.5 -20.5t48.5 -20.5q22 0 42 32zM478 199q0 -88 -55 -146q-57 -61 -151 -61t-151 61q-56 58 -56 146v127q0 90 56 149.5t149 59.5q95 0 151.5 -59.5t56.5 -149.5v-127z
M415 207v112q0 68 -34 109q-39 46 -111 46q-71 0 -108 -45q-34 -41 -34 -110v-112q0 -67 34 -108q38 -46 110 -46t109 46q34 41 34 108z" />
    <glyph glyph-name="odieresis" unicode="&#xf6;" horiz-adv-x="544" 
d="M394 637q0 -18 -13.5 -32t-32.5 -14t-32.5 13.5t-13.5 32.5t13.5 32.5t32.5 13.5t32.5 -13.5t13.5 -32.5zM227 637q0 -18 -13.5 -32t-32.5 -14t-32.5 14t-13.5 32q0 19 13.5 32.5t32.5 13.5t32.5 -13.5t13.5 -32.5zM478 199q0 -88 -55 -146q-57 -61 -151 -61t-151 61
q-56 58 -56 146v127q0 90 56 149.5t149 59.5q95 0 151.5 -59.5t56.5 -149.5v-127zM415 207v112q0 68 -34 109q-39 46 -111 46q-71 0 -108 -45q-34 -41 -34 -110v-112q0 -67 34 -108q38 -46 110 -46t109 46q34 41 34 108z" />
    <glyph glyph-name="divide" unicode="&#xf7;" 
 />
    <glyph glyph-name="oslash" unicode="&#xf8;" horiz-adv-x="544" 
d="M478 199q0 -88 -55 -146q-57 -61 -151 -61q-38 0 -70 10l-22 -61l-41 15l23 64q-97 56 -97 179v127q0 90 56 149.5t149 59.5q38 0 70 -10l22 61l41 -15l-23 -64q98 -56 98 -181v-127zM415 207v112q0 88 -56 129l-137 -388q24 -7 50 -7q72 0 109 46q34 41 34 108zM320 467
q-23 7 -50 7q-71 0 -109 -45q-33 -41 -33 -110v-112q0 -87 55 -128z" />
    <glyph glyph-name="ugrave" unicode="&#xf9;" horiz-adv-x="530" 
d="M391 613l-19 -42l-222 92l25 56zM454 0h-49l-8 42q-98 -50 -153 -50q-83 0 -130 54q-44 50 -44 132v331q0 18 16 18h47v-337q0 -137 111 -137q60 0 147 40v434h63v-527z" />
    <glyph glyph-name="uacute" unicode="&#xfa;" horiz-adv-x="530" 
d="M381 683l-222 -92l-19 42l216 106zM454 0h-49l-8 42q-98 -50 -153 -50q-83 0 -130 54q-44 50 -44 132v331q0 18 16 18h47v-337q0 -137 111 -137q60 0 147 40v434h63v-527z" />
    <glyph glyph-name="ucircumflex" unicode="&#xfb;" horiz-adv-x="530" 
d="M408 629l-31 -38l-115 95l-114 -95l-32 38l146 120zM454 0h-49l-8 42q-98 -50 -153 -50q-83 0 -130 54q-44 50 -44 132v331q0 18 16 18h47v-337q0 -137 111 -137q60 0 147 40v434h63v-527z" />
    <glyph glyph-name="udieresis" unicode="&#xfc;" horiz-adv-x="530" 
d="M394 636q0 -19 -13.5 -32.5t-32.5 -13.5t-32.5 13.5t-13.5 32.5t13.5 32.5t32.5 13.5t32.5 -13.5t13.5 -32.5zM227 636q0 -19 -13.5 -32.5t-32.5 -13.5t-32.5 13.5t-13.5 32.5t13.5 32.5t32.5 13.5t32.5 -13.5t13.5 -32.5zM454 0h-49l-8 42q-98 -50 -153 -50
q-83 0 -130 54q-44 50 -44 132v331q0 18 16 18h47v-337q0 -137 111 -137q60 0 147 40v434h63v-527z" />
    <glyph glyph-name="yacute" unicode="&#xfd;" 
 />
    <glyph glyph-name="thorn" unicode="&#xfe;" 
 />
    <glyph glyph-name="ydieresis" unicode="&#xff;" horiz-adv-x="501" 
d="M374 638q0 -19 -13.5 -32.5t-32.5 -13.5t-32.5 13.5t-13.5 32.5t13.5 32.5t32.5 13.5t32.5 -13.5t13.5 -32.5zM207 638q0 -19 -13.5 -32.5t-32.5 -13.5t-32.5 13.5t-13.5 32.5t13.5 32.5t32.5 13.5t32.5 -13.5t13.5 -32.5zM432 527l-25 -551q-8 -164 -165 -164h-91l-7 61
h99q70 0 90 50q9 23 13 109q-57 -32 -105 -32q-152 0 -168 179l-33 348h64l32 -341q12 -125 107 -125q45 0 106 33l20 433h63z" />
    <glyph glyph-name="dotlessi" unicode="&#x131;" horiz-adv-x="197" 
d="M130 17q0 -17 -16 -17h-47v523h63v-506z" />
    <glyph glyph-name="Lslash" unicode="&#x141;" 
 />
    <glyph glyph-name="lslash" unicode="&#x142;" 
 />
    <glyph glyph-name="OE" unicode="&#x152;" horiz-adv-x="956" 
d="M896 16q0 -16 -17 -16h-169q-133 0 -174 96q-72 -104 -208 -104q-117 0 -190 82q-68 77 -68 191v181q0 117 68 193q72 81 190 81q133 0 207 -106q39 98 175 98h183v-62h-183q-124 0 -124 -114v-142h292v-61h-292v-156q0 -55 24 -82q29 -33 100 -33h186v-46zM521 268v175
q0 82 -44 142q-52 72 -149 72q-98 0 -151 -72q-43 -59 -43 -142v-175q0 -83 43 -142q53 -72 151 -72q97 0 149 72q44 60 44 142z" />
    <glyph glyph-name="oe" unicode="&#x153;" horiz-adv-x="873" 
d="M812 267q0 -17 -17 -17h-317v-51q0 -58 32 -98q39 -48 109 -48q64 0 157 28l14 -57q-90 -32 -171 -32q-117 0 -173 91q-56 -91 -174 -91q-94 0 -150.5 59t-56.5 148v127q0 90 56 149.5t149 59.5q119 0 176 -92q56 92 168 92q90 0 146 -65q52 -60 52 -144v-59zM749 305v21
q0 58 -31 99q-37 49 -104 49t-104 -49q-32 -41 -32 -102v-18h271zM415 207v112q0 68 -34 109q-39 46 -111 46q-71 0 -108 -46q-34 -41 -34 -109v-112q0 -68 34 -109q38 -45 110 -45t109 45q34 41 34 109z" />
    <glyph glyph-name="Scaron" unicode="&#x160;" 
 />
    <glyph glyph-name="scaron" unicode="&#x161;" 
 />
    <glyph glyph-name="Ydieresis" unicode="&#x178;" horiz-adv-x="572" 
d="M423 810q0 -19 -13.5 -32.5t-32.5 -13.5t-32.5 13.5t-13.5 32.5t13.5 32.5t32.5 13.5t32.5 -13.5t13.5 -32.5zM256 810q0 -19 -13.5 -32.5t-32.5 -13.5t-32.5 13.5t-13.5 32.5t13.5 32.5t32.5 13.5t32.5 -13.5t13.5 -32.5zM527 712l-39 -208q-16 -87 -47 -132
q-41 -62 -123 -77v-295h-66v295q-80 15 -122 77q-30 46 -46 132l-39 208h65l37 -198q15 -80 37 -113q32 -47 101 -47q71 0 103 47q23 32 38 113l37 198h64z" />
    <glyph glyph-name="Zcaron" unicode="&#x17d;" 
 />
    <glyph glyph-name="zcaron" unicode="&#x17e;" 
 />
    <glyph glyph-name="florin" unicode="&#x192;" horiz-adv-x="512" 
d="M484 717l-15 -57q-42 9 -65 9q-86 0 -94 -101l-8 -102h146v-58h-152l-39 -449q-6 -71 -48 -111.5t-110 -40.5q-25 0 -77 12l14 57q45 -9 66 -9q84 0 93 101l38 440h-9l-93 3v55h107l9 111q6 71 48.5 112t111.5 41q21 0 77 -13z" />
    <glyph glyph-name="circumflex" unicode="&#x2c6;" horiz-adv-x="412" 
d="M352 629l-31 -38l-115 95l-114 -95l-32 38l146 120z" />
    <glyph glyph-name="caron" unicode="&#x2c7;" horiz-adv-x="432" 
d="M362 710l-146 -119l-146 119l32 39l114 -96l114 96z" />
    <glyph glyph-name="breve" unicode="&#x2d8;" horiz-adv-x="341" 
d="M301 725q0 -58 -35.5 -95.5t-94.5 -37.5t-95 37.5t-36 95.5h54q0 -35 17 -58q20 -27 60 -27q39 0 59 27q17 23 17 58h54z" />
    <glyph glyph-name="dotaccent" unicode="&#x2d9;" horiz-adv-x="197" 
d="M144 637q0 -18 -13.5 -31t-31.5 -13q-17 0 -30.5 13.5t-13.5 30.5q0 18 13 31.5t31 13.5t31.5 -13.5t13.5 -31.5z" />
    <glyph glyph-name="ring" unicode="&#x2da;" horiz-adv-x="321" 
d="M241 672q0 -33 -23.5 -56.5t-57.5 -23.5q-33 0 -56.5 23.5t-23.5 56.5q0 34 23.5 57.5t56.5 23.5q34 0 57.5 -23.5t23.5 -57.5zM211 672q0 21 -15 36t-36 15t-35.5 -15t-14.5 -36t14.5 -35.5t35.5 -14.5t36 14.5t15 35.5z" />
    <glyph glyph-name="ogonek" unicode="&#x2db;" horiz-adv-x="287" 
d="M222 -189q-22 -5 -47 -5q-45 0 -74 23q-36 28 -36 82v86h56v-73q0 -65 57 -65q14 0 38 4z" />
    <glyph glyph-name="tilde" unicode="&#x2dc;" horiz-adv-x="383" 
d="M328 651q-31 -59 -79 -59q-29 0 -65.5 20.5t-47.5 20.5q-25 0 -43 -33l-38 28q30 60 79 60q28 0 65.5 -20.5t48.5 -20.5q22 0 42 32z" />
    <glyph glyph-name="hungarumlaut" unicode="&#x2dd;" horiz-adv-x="275" 
d="M272 660l-84 -144l-50 23l56 157q11 24 40 24q18 0 29.5 -12.5t11.5 -30.5q0 -9 -3 -17zM134 660l-84 -144l-50 23l56 157q12 24 40 24q18 0 30 -12.5t12 -30.5q0 -9 -4 -17z" />
    <glyph glyph-name="Delta" unicode="&#x394;" 
 />
    <glyph glyph-name="Delta" unicode="&#x2206;" 
 />
    <glyph glyph-name="Omega" unicode="&#x3a9;" 
 />
    <glyph glyph-name="Omega" unicode="&#x2126;" 
 />
    <glyph glyph-name="pi" unicode="&#x3c0;" 
 />
    <glyph glyph-name="endash" unicode="&#x2013;" horiz-adv-x="499" 
d="M499 237h-499v63h499v-63z" />
    <glyph glyph-name="emdash" unicode="&#x2014;" horiz-adv-x="1000" 
d="M1000 237h-1000v63h1000v-63z" />
    <glyph glyph-name="quoteleft" unicode="&#x2018;" horiz-adv-x="213" 
d="M51 563l58 156l53 -14l-28 -164q-9 -32 -42 -32q-17 0 -29.5 13t-12.5 30q0 6 1 11z" />
    <glyph glyph-name="quoteright" unicode="&#x2019;" horiz-adv-x="212" 
d="M161 666l-58 -156l-53 14l28 164q9 32 42 32q17 0 29.5 -13t12.5 -30q0 -6 -1 -11z" />
    <glyph glyph-name="quotesinglbase" unicode="&#x201a;" horiz-adv-x="212" 
d="M161 38l-58 -156l-53 14l28 164q9 33 42 33q17 0 29.5 -13t12.5 -31q0 -5 -1 -11zM161 38l-58 -156l-53 14l28 164q9 33 42 33q17 0 29.5 -13t12.5 -31q0 -5 -1 -11z" />
    <glyph glyph-name="quotedblleft" unicode="&#x201c;" horiz-adv-x="352" 
d="M191 563l58 156l53 -14l-28 -164q-9 -32 -42 -32q-17 0 -29.5 13t-12.5 30q0 6 1 11zM51 563l58 156l53 -14l-28 -164q-9 -32 -42 -32q-17 0 -29.5 13t-12.5 30q0 6 1 11z" />
    <glyph glyph-name="quotedblright" unicode="&#x201d;" horiz-adv-x="352" 
d="M161 666l-58 -156l-53 14l28 164q9 32 42 32q17 0 29.5 -13t12.5 -30q0 -6 -1 -11zM301 666l-58 -156l-53 14l28 164q9 32 42 32q17 0 29.5 -13t12.5 -30q0 -6 -1 -11z" />
    <glyph glyph-name="quotedblbase" unicode="&#x201e;" horiz-adv-x="352" 
d="M161 38l-58 -156l-53 14l28 164q9 32 42 32q17 0 29.5 -13t12.5 -31q0 -5 -1 -10zM301 38l-58 -156l-53 14l28 164q9 32 42 32q17 0 29.5 -13t12.5 -31q0 -5 -1 -10z" />
    <glyph glyph-name="dagger" unicode="&#x2020;" horiz-adv-x="500" 
d="M405 456l-129 5l6 -461h-64l6 461l-129 -5v62l129 -6l-6 178h64l-6 -178l129 6v-62z" />
    <glyph glyph-name="daggerdbl" unicode="&#x2021;" horiz-adv-x="506" 
d="M411 180l-132 6l6 -186h-64l6 186l-132 -6v62l132 -6v218l-132 -6v62l132 -6l-6 186h64l-6 -186l132 6v-62l-132 6v-218l132 6v-62z" />
    <glyph glyph-name="bullet" unicode="&#x2022;" horiz-adv-x="522" 
d="M412 267q0 -62 -44.5 -106t-106.5 -44t-106.5 44t-44.5 106q0 63 44.5 107t106.5 44t106.5 -44t44.5 -107z" />
    <glyph glyph-name="ellipsis" unicode="&#x2026;" horiz-adv-x="901" 
d="M200 42q0 -20 -15 -35t-34 -15q-20 0 -34.5 15t-14.5 35t14.5 35t34.5 15q19 0 34 -15t15 -35zM499 42q0 -20 -14.5 -35t-34.5 -15t-34 15t-14 35t14 35t34 15t34.5 -15t14.5 -35zM799 42q0 -20 -15 -35t-34 -15q-20 0 -34.5 15t-14.5 35t14.5 35t34.5 15q19 0 34 -15
t15 -35z" />
    <glyph glyph-name="perthousand" unicode="&#x2030;" horiz-adv-x="1228" 
d="M1128 159q0 -70 -42 -118.5t-111 -48.5t-111 48t-42 119t42 119.5t111 48.5t111 -48.5t42 -119.5zM406 532q0 -70 -42 -118.5t-111 -48.5t-111 48t-42 119t42 119.5t111 48.5t111 -48.5t42 -119.5zM556 691l-200 -690h-37l200 690h37zM772 159q0 -70 -42 -118.5
t-111 -48.5t-111 48t-42 119t42 119.5t111 48.5t111 -48.5t42 -119.5zM1087 159q0 54 -30 92.5t-82 38.5q-53 0 -82.5 -38.5t-29.5 -92.5t28 -90q31 -40 84 -40q52 0 83 40q29 36 29 90zM365 532q0 54 -30 92.5t-82 38.5t-82 -38.5t-30 -92.5t29 -90q31 -40 83 -40t83 40
q29 36 29 90zM731 159q0 54 -30 92.5t-82 38.5q-53 0 -82.5 -38.5t-29.5 -92.5t28 -90q31 -40 84 -40q52 0 83 40q29 36 29 90z" />
    <glyph glyph-name="guilsinglleft" unicode="&#x2039;" horiz-adv-x="428" 
d="M326 84h-78l-146 183l146 182h78l-146 -182z" />
    <glyph glyph-name="guilsinglright" unicode="&#x203a;" horiz-adv-x="428" 
d="M326 267l-146 -183h-78l146 183l-146 182h78z" />
    <glyph glyph-name="fraction" unicode="&#x2044;" 
 />
    <glyph glyph-name="trademark" unicode="&#x2122;" horiz-adv-x="818" 
d="M713 373h-49l-24 248l-10 -34l-64 -184h-55l-75 218l-3 -34l-20 -214h-52l33 322h70l75 -223l71 223h76zM351 649h-99v-276h-50v276h-97v46h246v-46z" />
    <glyph glyph-name="partialdiff" unicode="&#x2202;" 
 />
    <glyph glyph-name="product" unicode="&#x220f;" 
 />
    <glyph glyph-name="summation" unicode="&#x2211;" 
 />
    <glyph glyph-name="radical" unicode="&#x221a;" 
 />
    <glyph glyph-name="infinity" unicode="&#x221e;" 
 />
    <glyph glyph-name="integral" unicode="&#x222b;" horiz-adv-x="433" 
d="M405 720l-5 -58q-45 9 -67 9q-88 0 -88 -101v-608q0 -72 -38 -113t-107 -41q-32 0 -78 13l7 57q43 -9 66 -9q88 0 88 101v608q0 71 38.5 112t106.5 41q29 0 77 -11z" />
    <glyph glyph-name="approxequal" unicode="&#x2248;" 
 />
    <glyph glyph-name="approxequal" unicode="&#x22f2;" 
 />
    <glyph glyph-name="notequal" unicode="&#x2260;" horiz-adv-x="562" 
d="M467 149h-208l-35 -96l-38 14l30 82h-121v64h144l41 113h-185v64h208l35 96l39 -14l-30 -82h120v-64h-143l-41 -113h184v-64z" />
    <glyph glyph-name="lessequal" unicode="&#x2264;" horiz-adv-x="580" 
d="M477 118l-12 -65l-362 184v63l362 183l12 -65l-306 -150zM478 -47h-375v57h375v-57z" />
    <glyph glyph-name="greaterequal" unicode="&#x2265;" horiz-adv-x="580" 
d="M478 237l-362 -184l-12 65l306 150l-306 150l12 65l362 -183v-63zM478 -47h-375v57h375v-57z" />
    <glyph glyph-name="lozenge" unicode="&#x25ca;" 
 />
    <glyph glyph-name="fi" unicode="&#xf001;" horiz-adv-x="626" 
d="M345 746l-9 -58q-44 7 -63 7q-45 0 -65 -21q-22 -24 -22 -81v-66h137v-58h-137v-453q0 -16 -15 -16h-48v469l-88 6v52h88v72q0 74 39 115.5t111 41.5q34 0 72 -10zM545 16q0 -16 -15 -16h-48v469l-66 6v52h129v-511zM559 695q0 -19 -13.5 -32t-31.5 -13q-19 0 -32 13
t-13 32t13 31.5t32 12.5t32 -12.5t13 -31.5z" />
    <glyph glyph-name="fl" unicode="&#xf002;" horiz-adv-x="593" 
d="M345 746l-9 -58q-44 7 -63 7q-45 0 -65 -21q-22 -24 -22 -81v-66h137v-58h-137v-453q0 -16 -15 -16h-48v469l-88 6v52h88v72q0 74 39 115.5t111 41.5q34 0 72 -10zM542 44l-12 -53q-35 3 -57.5 24.5t-22.5 56.5v675h63v-669q0 -27 29 -34z" />
    <glyph glyph-name=".null" 
 />
    <glyph glyph-name="HT" 
 />
    <glyph glyph-name="LF" 
 />
    <glyph glyph-name="nonmarkingreturn" 
 />
    <glyph glyph-name="DLE" 
 />
    <glyph glyph-name="DC1" 
 />
    <glyph glyph-name="DC2" 
 />
    <glyph glyph-name="DC3" 
 />
    <glyph glyph-name="DC4" 
 />
    <glyph glyph-name="RS" 
 />
    <glyph glyph-name="US" 
 />
    <glyph glyph-name="DEL" 
 />
    <glyph glyph-name="glyph258" 
 />
    </font>
</defs>
</svg>
